<svg width="20" height="20" viewBox="0 0 20 20" fill="none" xmlns="http://www.w3.org/2000/svg">
<path d="M8.33268 3.33252L6.66602 4.99918M14.166 15.8325V17.4992M1.66602 9.99918H18.3327M5.83268 15.8325V17.4992M7.49935 4.16585L6.35018 3.01668C6.10919 2.77457 5.80321 2.60749 5.46925 2.53564C5.13529 2.46378 4.78766 2.49025 4.46843 2.61182C4.14919 2.7334 3.87203 2.94488 3.67046 3.22067C3.4689 3.49647 3.35157 3.82477 3.33268 4.16585V14.1658C3.33268 14.6079 3.50828 15.0318 3.82084 15.3444C4.1334 15.6569 4.55732 15.8325 4.99935 15.8325H14.9993C15.4414 15.8325 15.8653 15.6569 16.1779 15.3444C16.4904 15.0318 16.666 14.6079 16.666 14.1658V9.99918" stroke="#334155" stroke-width="1.66667" stroke-linecap="round" stroke-linejoin="round"/>
</svg>
