<svg width="20" height="20" viewBox="0 0 20 20" fill="none" xmlns="http://www.w3.org/2000/svg">
<path d="M1.66602 16.6673V10.0007C1.66602 9.55862 1.84161 9.1347 2.15417 8.82214C2.46673 8.50958 2.89065 8.33398 3.33268 8.33398M3.33268 8.33398H16.666M3.33268 8.33398V5.00065C3.33268 4.55862 3.50828 4.1347 3.82084 3.82214C4.1334 3.50958 4.55732 3.33398 4.99935 3.33398H14.9993C15.4414 3.33398 15.8653 3.50958 16.1779 3.82214C16.4904 4.1347 16.666 4.55862 16.666 5.00065V8.33398M16.666 8.33398C17.108 8.33398 17.532 8.50958 17.8445 8.82214C18.1571 9.1347 18.3327 9.55862 18.3327 10.0007V16.6673M9.99935 3.33398V8.33398M1.66602 15.0007H18.3327" stroke="#334155" stroke-width="1.66667" stroke-linecap="round" stroke-linejoin="round"/>
</svg>
