<svg width="20" height="20" viewBox="0 0 20 20" fill="none" xmlns="http://www.w3.org/2000/svg">
<path d="M9.60502 1.91176C9.64153 1.83798 9.69795 1.77587 9.76789 1.73245C9.83784 1.68903 9.91852 1.66602 10.0008 1.66602C10.0832 1.66602 10.1639 1.68903 10.2338 1.73245C10.3037 1.77587 10.3602 1.83798 10.3967 1.91176L12.3217 5.81093C12.4485 6.06757 12.6357 6.2896 12.8672 6.45797C13.0987 6.62634 13.3676 6.73602 13.6508 6.77759L17.9559 7.40759C18.0374 7.41941 18.1141 7.45382 18.1771 7.50693C18.2401 7.56003 18.287 7.62972 18.3125 7.7081C18.338 7.78648 18.3411 7.87043 18.3213 7.95046C18.3016 8.03048 18.2599 8.10339 18.2008 8.16093L15.0875 11.1926C14.8822 11.3927 14.7286 11.6397 14.6399 11.9123C14.5512 12.1849 14.5301 12.475 14.5783 12.7576L15.3133 17.0409C15.3277 17.1225 15.3189 17.2064 15.2879 17.2832C15.2569 17.3599 15.205 17.4264 15.138 17.4751C15.071 17.5237 14.9917 17.5526 14.9091 17.5583C14.8265 17.5641 14.7439 17.5465 14.6708 17.5076L10.8225 15.4843C10.5689 15.3511 10.2868 15.2816 10.0004 15.2816C9.71403 15.2816 9.43192 15.3511 9.17835 15.4843L5.33085 17.5076C5.25779 17.5463 5.17535 17.5637 5.09289 17.5578C5.01044 17.5519 4.93128 17.5231 4.86443 17.4744C4.79758 17.4258 4.74571 17.3594 4.71473 17.2828C4.68375 17.2061 4.6749 17.1223 4.68918 17.0409L5.42335 12.7584C5.47185 12.4757 5.45084 12.1854 5.36213 11.9126C5.27343 11.6398 5.11969 11.3927 4.91418 11.1926L1.80085 8.16176C1.74134 8.10429 1.69918 8.03126 1.67915 7.95099C1.65913 7.87072 1.66205 7.78644 1.68758 7.70775C1.71312 7.62906 1.76024 7.55913 1.82358 7.50591C1.88692 7.4527 1.96393 7.41834 2.04585 7.40676L6.35002 6.77759C6.63356 6.73634 6.90284 6.62681 7.13467 6.45842C7.3665 6.29002 7.55394 6.06782 7.68085 5.81093L9.60502 1.91176Z" stroke="#334155" stroke-width="1.66667" stroke-linecap="round" stroke-linejoin="round"/>
</svg>
