<svg width="20" height="20" viewBox="0 0 20 20" fill="none" xmlns="http://www.w3.org/2000/svg">
<path d="M9.99928 6.66602L14.9993 4.16602L9.99928 1.66602V9.99935M6.66595 9.99102L2.08261 12.6077C1.95436 12.6804 1.84769 12.7858 1.77348 12.9131C1.69926 13.0405 1.66016 13.1853 1.66016 13.3327C1.66016 13.4801 1.69926 13.6249 1.77348 13.7522C1.84769 13.8796 1.95436 13.985 2.08261 14.0577L9.16595 18.1077C9.41931 18.254 9.70672 18.331 9.99928 18.331C10.2918 18.331 10.5792 18.254 10.8326 18.1077L17.9159 14.0577C18.0442 13.985 18.1509 13.8796 18.2251 13.7522C18.2993 13.6249 18.3384 13.4801 18.3384 13.3327C18.3384 13.1853 18.2993 13.0405 18.2251 12.9131C18.1509 12.7858 18.0442 12.6804 17.9159 12.6077L13.3326 9.99935M5.40761 10.7077L14.5909 15.9577M14.5909 10.7077L5.41595 15.9577" stroke="#334155" stroke-width="1.66667" stroke-linecap="round" stroke-linejoin="round"/>
</svg>
